<mxfile host="65bd71144e">
    <diagram id="XTPuL1wm-lhwQrugIu8Y" name="Class Diagram">
        <mxGraphModel dx="469" dy="553" grid="1" gridSize="10" guides="1" tooltips="1" connect="1" arrows="1" fold="1" page="1" pageScale="1" pageWidth="850" pageHeight="1100" math="0" shadow="0">
            <root>
                <mxCell id="0"/>
                <mxCell id="1" parent="0"/>
                <mxCell id="2" value="&lt;b&gt;OfficeBridge&lt;/b&gt;&lt;br&gt;(Core class to bridge comms from Office &amp;lt;&amp;gt; PowerApps (via PCF))" style="rounded=0;whiteSpace=wrap;html=1;" vertex="1" parent="1">
                    <mxGeometry x="40" y="40" width="190" height="210" as="geometry"/>
                </mxCell>
                <mxCell id="14" style="edgeStyle=none;html=1;entryX=0.5;entryY=1;entryDx=0;entryDy=0;" edge="1" parent="1" source="8" target="13">
                    <mxGeometry relative="1" as="geometry"/>
                </mxCell>
                <mxCell id="8" value="OutlookConnector" style="rounded=0;whiteSpace=wrap;html=1;" vertex="1" parent="1">
                    <mxGeometry x="305" y="150" width="120" height="60" as="geometry"/>
                </mxCell>
                <mxCell id="13" value="&amp;lt;&amp;lt;interface&amp;gt;&amp;gt;&lt;br&gt;OfficeAppConnector" style="rounded=0;whiteSpace=wrap;html=1;" vertex="1" parent="1">
                    <mxGeometry x="305" y="40" width="120" height="60" as="geometry"/>
                </mxCell>
                <mxCell id="15" value="&lt;p style=&quot;margin:0px;margin-top:4px;text-align:center;&quot;&gt;&lt;i&gt;&amp;lt;&amp;lt;Interface&amp;gt;&amp;gt;&lt;/i&gt;&lt;br&gt;&lt;b&gt;iOfficeAppConnector&lt;/b&gt;&lt;/p&gt;&lt;hr size=&quot;1&quot;&gt;&lt;p style=&quot;margin:0px;margin-left:4px;&quot;&gt;+ field1: Type&lt;br&gt;+ field2: Type&lt;/p&gt;&lt;hr size=&quot;1&quot;&gt;&lt;p style=&quot;margin:0px;margin-left:4px;&quot;&gt;+ method1(Type): Type&lt;br&gt;+ method2(Type, Type): Type&lt;/p&gt;" style="verticalAlign=top;align=left;overflow=fill;fontSize=12;fontFamily=Helvetica;html=1;" vertex="1" parent="1">
                    <mxGeometry x="490" y="40" width="190" height="140" as="geometry"/>
                </mxCell>
                <mxCell id="20" style="edgeStyle=none;html=1;entryX=0.5;entryY=1;entryDx=0;entryDy=0;" edge="1" parent="1" source="16" target="15">
                    <mxGeometry relative="1" as="geometry"/>
                </mxCell>
                <mxCell id="16" value="OutlookAppConnector" style="swimlane;fontStyle=1;align=center;verticalAlign=top;childLayout=stackLayout;horizontal=1;startSize=26;horizontalStack=0;resizeParent=1;resizeParentMax=0;resizeLast=0;collapsible=1;marginBottom=0;" vertex="1" parent="1">
                    <mxGeometry x="505" y="240" width="160" height="86" as="geometry"/>
                </mxCell>
                <mxCell id="17" value="+ field: type" style="text;strokeColor=none;fillColor=none;align=left;verticalAlign=top;spacingLeft=4;spacingRight=4;overflow=hidden;rotatable=0;points=[[0,0.5],[1,0.5]];portConstraint=eastwest;" vertex="1" parent="16">
                    <mxGeometry y="26" width="160" height="26" as="geometry"/>
                </mxCell>
                <mxCell id="18" value="" style="line;strokeWidth=1;fillColor=none;align=left;verticalAlign=middle;spacingTop=-1;spacingLeft=3;spacingRight=3;rotatable=0;labelPosition=right;points=[];portConstraint=eastwest;strokeColor=inherit;" vertex="1" parent="16">
                    <mxGeometry y="52" width="160" height="8" as="geometry"/>
                </mxCell>
                <mxCell id="19" value="+ method(type): type" style="text;strokeColor=none;fillColor=none;align=left;verticalAlign=top;spacingLeft=4;spacingRight=4;overflow=hidden;rotatable=0;points=[[0,0.5],[1,0.5]];portConstraint=eastwest;" vertex="1" parent="16">
                    <mxGeometry y="60" width="160" height="26" as="geometry"/>
                </mxCell>
                <mxCell id="21" value="OfficeBridge" style="swimlane;fontStyle=1;align=center;verticalAlign=top;childLayout=stackLayout;horizontal=1;startSize=26;horizontalStack=0;resizeParent=1;resizeParentMax=0;resizeLast=0;collapsible=1;marginBottom=0;" vertex="1" parent="1">
                    <mxGeometry x="50" y="300" width="160" height="86" as="geometry">
                        <mxRectangle x="160" y="320" width="100" height="30" as="alternateBounds"/>
                    </mxGeometry>
                </mxCell>
                <mxCell id="22" value="+ field: type" style="text;strokeColor=none;fillColor=none;align=left;verticalAlign=top;spacingLeft=4;spacingRight=4;overflow=hidden;rotatable=0;points=[[0,0.5],[1,0.5]];portConstraint=eastwest;" vertex="1" parent="21">
                    <mxGeometry y="26" width="160" height="26" as="geometry"/>
                </mxCell>
                <mxCell id="23" value="" style="line;strokeWidth=1;fillColor=none;align=left;verticalAlign=middle;spacingTop=-1;spacingLeft=3;spacingRight=3;rotatable=0;labelPosition=right;points=[];portConstraint=eastwest;strokeColor=inherit;" vertex="1" parent="21">
                    <mxGeometry y="52" width="160" height="8" as="geometry"/>
                </mxCell>
                <mxCell id="24" value="+ method(type): type" style="text;strokeColor=none;fillColor=none;align=left;verticalAlign=top;spacingLeft=4;spacingRight=4;overflow=hidden;rotatable=0;points=[[0,0.5],[1,0.5]];portConstraint=eastwest;" vertex="1" parent="21">
                    <mxGeometry y="60" width="160" height="26" as="geometry"/>
                </mxCell>
            </root>
        </mxGraphModel>
    </diagram>
    <diagram id="5T9pJHF73vHLstXOYDrP" name="Logic Flowchart">
        <mxGraphModel dx="469" dy="553" grid="1" gridSize="10" guides="1" tooltips="1" connect="1" arrows="1" fold="1" page="1" pageScale="1" pageWidth="850" pageHeight="1100" math="0" shadow="0">
            <root>
                <mxCell id="0"/>
                <mxCell id="1" parent="0"/>
                <mxCell id="mZxmzSs0JvttlVAv_ivW-3" value="" style="edgeStyle=none;html=1;" edge="1" parent="1" source="mZxmzSs0JvttlVAv_ivW-1" target="mZxmzSs0JvttlVAv_ivW-2">
                    <mxGeometry relative="1" as="geometry"/>
                </mxCell>
                <mxCell id="mZxmzSs0JvttlVAv_ivW-1" value="Create&lt;br&gt;OfficeBridge" style="rounded=0;whiteSpace=wrap;html=1;" vertex="1" parent="1">
                    <mxGeometry x="50" y="50" width="120" height="60" as="geometry"/>
                </mxCell>
                <mxCell id="mZxmzSs0JvttlVAv_ivW-2" value="Add Event Handler for PostMessage" style="whiteSpace=wrap;html=1;fillColor=rgb(24, 20, 29);rounded=0;" vertex="1" parent="1">
                    <mxGeometry x="250" y="50" width="120" height="60" as="geometry"/>
                </mxCell>
                <mxCell id="mZxmzSs0JvttlVAv_ivW-9" value="" style="edgeStyle=none;html=1;" edge="1" parent="1" source="mZxmzSs0JvttlVAv_ivW-6" target="mZxmzSs0JvttlVAv_ivW-8">
                    <mxGeometry relative="1" as="geometry"/>
                </mxCell>
                <mxCell id="mZxmzSs0JvttlVAv_ivW-6" value="Generator &lt;br&gt;App-Specific &lt;br&gt;Connector" style="whiteSpace=wrap;html=1;fillColor=rgb(24, 20, 29);rounded=0;" vertex="1" parent="1">
                    <mxGeometry x="200" y="150" width="120" height="60" as="geometry"/>
                </mxCell>
                <mxCell id="mZxmzSs0JvttlVAv_ivW-11" value="" style="edgeStyle=none;html=1;" edge="1" parent="1" source="mZxmzSs0JvttlVAv_ivW-8" target="mZxmzSs0JvttlVAv_ivW-10">
                    <mxGeometry relative="1" as="geometry"/>
                </mxCell>
                <mxCell id="mZxmzSs0JvttlVAv_ivW-8" value="OutlookConnector" style="rounded=0;whiteSpace=wrap;html=1;" vertex="1" parent="1">
                    <mxGeometry x="365" y="150" width="120" height="60" as="geometry"/>
                </mxCell>
                <mxCell id="mZxmzSs0JvttlVAv_ivW-15" value="" style="edgeStyle=none;html=1;" edge="1" parent="1" source="mZxmzSs0JvttlVAv_ivW-10" target="mZxmzSs0JvttlVAv_ivW-14">
                    <mxGeometry relative="1" as="geometry"/>
                </mxCell>
                <mxCell id="mZxmzSs0JvttlVAv_ivW-10" value="Add ItemChanged Event Handler" style="whiteSpace=wrap;html=1;fillColor=rgb(24, 20, 29);rounded=0;" vertex="1" parent="1">
                    <mxGeometry x="530" y="150" width="120" height="60" as="geometry"/>
                </mxCell>
                <mxCell id="mZxmzSs0JvttlVAv_ivW-17" value="Yes" style="edgeStyle=none;html=1;" edge="1" parent="1" source="mZxmzSs0JvttlVAv_ivW-14" target="mZxmzSs0JvttlVAv_ivW-16">
                    <mxGeometry relative="1" as="geometry"/>
                </mxCell>
                <mxCell id="mZxmzSs0JvttlVAv_ivW-14" value="Is PCF Ready?" style="rhombus;whiteSpace=wrap;html=1;fillColor=rgb(24, 20, 29);rounded=0;" vertex="1" parent="1">
                    <mxGeometry x="700" y="140" width="80" height="80" as="geometry"/>
                </mxCell>
                <mxCell id="mZxmzSs0JvttlVAv_ivW-16" value="Connector:&lt;br&gt;Load Office Object" style="whiteSpace=wrap;html=1;fillColor=rgb(24, 20, 29);rounded=0;" vertex="1" parent="1">
                    <mxGeometry x="680" y="270" width="120" height="60" as="geometry"/>
                </mxCell>
                <mxCell id="mZxmzSs0JvttlVAv_ivW-21" style="edgeStyle=none;html=1;entryX=0;entryY=0.5;entryDx=0;entryDy=0;" edge="1" parent="1" source="mZxmzSs0JvttlVAv_ivW-20" target="mZxmzSs0JvttlVAv_ivW-6">
                    <mxGeometry relative="1" as="geometry"/>
                </mxCell>
                <mxCell id="mZxmzSs0JvttlVAv_ivW-20" value="Event: Office.Ready" style="ellipse;whiteSpace=wrap;html=1;aspect=fixed;" vertex="1" parent="1">
                    <mxGeometry x="70" y="140" width="80" height="80" as="geometry"/>
                </mxCell>
                <mxCell id="mZxmzSs0JvttlVAv_ivW-24" value="" style="edgeStyle=none;html=1;" edge="1" parent="1" source="mZxmzSs0JvttlVAv_ivW-22" target="mZxmzSs0JvttlVAv_ivW-23">
                    <mxGeometry relative="1" as="geometry"/>
                </mxCell>
                <mxCell id="mZxmzSs0JvttlVAv_ivW-22" value="Event: PostMessage Received" style="ellipse;whiteSpace=wrap;html=1;aspect=fixed;" vertex="1" parent="1">
                    <mxGeometry x="70" y="380" width="80" height="80" as="geometry"/>
                </mxCell>
                <mxCell id="mZxmzSs0JvttlVAv_ivW-28" value="Yes" style="edgeStyle=none;html=1;fontSize=12;" edge="1" parent="1" source="mZxmzSs0JvttlVAv_ivW-23" target="mZxmzSs0JvttlVAv_ivW-27">
                    <mxGeometry relative="1" as="geometry"/>
                </mxCell>
                <mxCell id="mZxmzSs0JvttlVAv_ivW-23" value="MessageType = PCF.Ready?" style="rhombus;whiteSpace=wrap;html=1;fillColor=rgb(24, 20, 29);fontSize=9;" vertex="1" parent="1">
                    <mxGeometry x="220" y="380" width="80" height="80" as="geometry"/>
                </mxCell>
                <mxCell id="mZxmzSs0JvttlVAv_ivW-31" value="" style="edgeStyle=none;html=1;fontSize=12;" edge="1" parent="1" source="mZxmzSs0JvttlVAv_ivW-25" target="mZxmzSs0JvttlVAv_ivW-30">
                    <mxGeometry relative="1" as="geometry"/>
                </mxCell>
                <mxCell id="mZxmzSs0JvttlVAv_ivW-25" value="Load Office Object" style="whiteSpace=wrap;html=1;fontSize=12;fillColor=rgb(24, 20, 29);" vertex="1" parent="1">
                    <mxGeometry x="510" y="390" width="120" height="60" as="geometry"/>
                </mxCell>
                <mxCell id="mZxmzSs0JvttlVAv_ivW-29" value="Yes" style="edgeStyle=none;html=1;fontSize=12;" edge="1" parent="1" source="mZxmzSs0JvttlVAv_ivW-27" target="mZxmzSs0JvttlVAv_ivW-25">
                    <mxGeometry relative="1" as="geometry"/>
                </mxCell>
                <mxCell id="mZxmzSs0JvttlVAv_ivW-27" value="Connector&lt;br&gt;Exists?" style="rhombus;whiteSpace=wrap;html=1;fontSize=9;fillColor=rgb(24, 20, 29);" vertex="1" parent="1">
                    <mxGeometry x="385" y="380" width="80" height="80" as="geometry"/>
                </mxCell>
                <mxCell id="mZxmzSs0JvttlVAv_ivW-30" value="Send Office Object&lt;br&gt;(if Ready)" style="whiteSpace=wrap;html=1;fillColor=rgb(24, 20, 29);" vertex="1" parent="1">
                    <mxGeometry x="680" y="390" width="120" height="60" as="geometry"/>
                </mxCell>
            </root>
        </mxGraphModel>
    </diagram>
</mxfile>